<svg width="720" height="698" viewBox="0 0 720 698" fill="none" xmlns="http://www.w3.org/2000/svg">
  <rect width="720" height="698" rx="34" fill="#E9EEF6"/>
  <g filter="url(#blurA)">
    <circle cx="297" cy="127" r="206" fill="#D7F2D9"/>
  </g>
  <g filter="url(#blurB)">
    <circle cx="540" cy="579" r="178" fill="#CFE0FF"/>
  </g>
  <rect x="229" y="46" width="409" height="442" rx="28" fill="url(#cardA)"/>
  <rect x="290" y="474" width="266" height="170" rx="26" fill="#FAFBFD"/>
  <rect x="332" y="520" width="125" height="20" rx="10" fill="#B6BECF"/>
  <rect x="330" y="558" width="188" height="18" rx="9" fill="#1E2530" fill-opacity="0.18"/>
  <rect x="330" y="588" width="164" height="18" rx="9" fill="#1E2530" fill-opacity="0.14"/>
  <text x="262" y="206" fill="#FF5A5F" font-family="Arial, sans-serif" font-size="54" font-weight="500">Реализуем</text>
  <text x="262" y="268" fill="#FF5A5F" font-family="Arial, sans-serif" font-size="54" font-weight="500">потенциал</text>
  <text x="262" y="330" fill="#FF5A5F" font-family="Arial, sans-serif" font-size="54" font-weight="500">с Kokoc</text>
  <circle cx="292" cy="112" r="18" fill="#FF5A5F"/>
  <circle cx="275" cy="95" r="6" fill="#FF5A5F"/>
  <circle cx="309" cy="95" r="6" fill="#FF5A5F"/>
  <circle cx="275" cy="129" r="6" fill="#FF5A5F"/>
  <circle cx="309" cy="129" r="6" fill="#FF5A5F"/>
  <rect x="474" y="206" width="214" height="286" rx="26" fill="#FAFBFD"/>
  <circle cx="505" cy="236" r="14" fill="#FF5A5F"/>
  <circle cx="492" cy="223" r="5" fill="#FF5A5F"/>
  <circle cx="518" cy="223" r="5" fill="#FF5A5F"/>
  <circle cx="492" cy="249" r="5" fill="#FF5A5F"/>
  <circle cx="518" cy="249" r="5" fill="#FF5A5F"/>
  <rect x="500" y="274" width="150" height="18" rx="9" fill="#1E2530"/>
  <rect x="500" y="304" width="124" height="18" rx="9" fill="#1E2530"/>
  <rect x="500" y="338" width="134" height="10" rx="5" fill="#1E2530" fill-opacity="0.22"/>
  <rect x="500" y="356" width="146" height="10" rx="5" fill="#1E2530" fill-opacity="0.16"/>
  <rect x="500" y="388" width="104" height="34" rx="17" fill="#FF5A5F"/>
  <rect x="500" y="438" width="162" height="38" rx="14" fill="#F4F6FA"/>
  <path d="M500 476H662V494C662 505.046 653.046 514 642 514H520C508.954 514 500 505.046 500 494V476Z" fill="#DCEFE3"/>
  <defs>
    <filter id="blurA" x="-29" y="-199" width="652" height="652" filterUnits="userSpaceOnUse" color-interpolation-filters="sRGB">
      <feGaussianBlur stdDeviation="60"/>
    </filter>
    <filter id="blurB" x="182" y="221" width="716" height="716" filterUnits="userSpaceOnUse" color-interpolation-filters="sRGB">
      <feGaussianBlur stdDeviation="90"/>
    </filter>
    <linearGradient id="cardA" x1="229" y1="46" x2="638" y2="488" gradientUnits="userSpaceOnUse">
      <stop stop-color="#83EAD0"/>
      <stop offset="1" stop-color="#DFF5CB"/>
    </linearGradient>
  </defs>
</svg>
