<svg width="243" height="526" viewBox="0 0 243 526" fill="none" xmlns="http://www.w3.org/2000/svg">
  <rect width="243" height="526" rx="24" fill="#FAFBFD"/>
  <rect x="24" y="64" width="195" height="76" rx="18" fill="#FFFFFF"/>
  <circle cx="50" cy="90" r="14" fill="#FF5A5F"/>
  <circle cx="37" cy="77" r="5" fill="#FF5A5F"/>
  <circle cx="63" cy="77" r="5" fill="#FF5A5F"/>
  <circle cx="37" cy="103" r="5" fill="#FF5A5F"/>
  <circle cx="63" cy="103" r="5" fill="#FF5A5F"/>
  <rect x="24" y="166" width="195" height="120" rx="22" fill="#FFFFFF"/>
  <rect x="44" y="188" width="108" height="12" rx="6" fill="#1E2530" fill-opacity="0.18"/>
  <rect x="44" y="208" width="96" height="12" rx="6" fill="#1E2530" fill-opacity="0.14"/>
  <path d="M24 238C58 208 96 219 134 238C164 252 193 252 219 230V286H24V238Z" fill="url(#waveA)"/>
  <rect x="24" y="312" width="195" height="120" rx="22" fill="#FFFFFF"/>
  <rect x="44" y="334" width="124" height="12" rx="6" fill="#1E2530" fill-opacity="0.18"/>
  <rect x="44" y="354" width="102" height="12" rx="6" fill="#1E2530" fill-opacity="0.14"/>
  <path d="M24 392C63 347 104 348 145 372C171 387 195 391 219 378V432H24V392Z" fill="url(#waveB)"/>
  <defs>
    <linearGradient id="waveA" x1="24" y1="230" x2="219" y2="286" gradientUnits="userSpaceOnUse">
      <stop stop-color="#B2F5D6"/>
      <stop offset="1" stop-color="#E9FFD0"/>
    </linearGradient>
    <linearGradient id="waveB" x1="24" y1="372" x2="219" y2="432" gradientUnits="userSpaceOnUse">
      <stop stop-color="#DDF8CD"/>
      <stop offset="1" stop-color="#9EF0E0"/>
    </linearGradient>
  </defs>
</svg>
