<svg width="921" height="850" viewBox="0 0 921 850" fill="none" xmlns="http://www.w3.org/2000/svg">
  <rect width="921" height="850" rx="34" fill="#F4F6FA"/>
  <rect x="50" y="46" width="609" height="758" rx="30" fill="#FCFDFF"/>
  <rect x="100" y="94" width="152" height="56" rx="16" fill="#F7F8FB"/>
  <text x="130" y="133" fill="#F05A42" font-family="Arial, sans-serif" font-size="42" font-weight="400">iQuoto</text>
  <text x="222" y="143" fill="#4F6074" font-family="Arial, sans-serif" font-size="16" font-weight="600" letter-spacing="0.18em">GLOBAL</text>
  <text x="102" y="428" fill="#2F3442" font-family="Arial, sans-serif" font-size="64" font-weight="700">Powering</text>
  <text x="102" y="504" fill="#2F3442" font-family="Arial, sans-serif" font-size="64" font-weight="700">Intelligent Trading</text>
  <rect x="102" y="548" width="416" height="16" rx="8" fill="#2F3442" fill-opacity="0.14"/>
  <rect x="102" y="576" width="374" height="16" rx="8" fill="#2F3442" fill-opacity="0.1"/>
  <rect x="102" y="632" width="198" height="146" rx="18" fill="url(#tileA)"/>
  <rect x="318" y="632" width="198" height="146" rx="18" fill="url(#tileB)"/>
  <rect x="527" y="76" width="344" height="680" rx="28" fill="#FFFFFF"/>
  <rect x="527" y="76" width="344" height="66" rx="28" fill="#FFFFFF"/>
  <path d="M567 120L551 104L567 88" stroke="#60728C" stroke-width="3" stroke-linecap="round" stroke-linejoin="round"/>
  <rect x="552" y="182" width="120" height="16" rx="8" fill="#1B2230" fill-opacity="0.9"/>
  <rect x="552" y="216" width="250" height="46" rx="12" fill="#F2F4F8"/>
  <rect x="552" y="294" width="110" height="16" rx="8" fill="#1B2230" fill-opacity="0.88"/>
  <rect x="552" y="326" width="250" height="46" rx="12" fill="#F2F4F8"/>
  <rect x="552" y="404" width="124" height="16" rx="8" fill="#1B2230" fill-opacity="0.88"/>
  <rect x="552" y="436" width="250" height="46" rx="12" fill="#F2F4F8"/>
  <rect x="552" y="514" width="110" height="16" rx="8" fill="#1B2230" fill-opacity="0.88"/>
  <rect x="552" y="546" width="250" height="46" rx="12" fill="#F2F4F8"/>
  <rect x="552" y="624" width="160" height="16" rx="8" fill="#1B2230" fill-opacity="0.88"/>
  <rect x="552" y="656" width="250" height="46" rx="12" fill="#F2F4F8"/>
  <rect x="552" y="736" width="260" height="54" rx="14" fill="#F05A42"/>
  <defs>
    <linearGradient id="tileA" x1="102" y1="632" x2="300" y2="778" gradientUnits="userSpaceOnUse">
      <stop stop-color="#B9BEFF"/>
      <stop offset="1" stop-color="#C8D0FF"/>
    </linearGradient>
    <linearGradient id="tileB" x1="318" y1="632" x2="516" y2="778" gradientUnits="userSpaceOnUse">
      <stop stop-color="#BEC5FF"/>
      <stop offset="1" stop-color="#D6D8FF"/>
    </linearGradient>
  </defs>
</svg>
